<?xml version="1.0" encoding="utf-8"?>
<!-- Generator: Adobe Illustrator 24.1.0, SVG Export Plug-In . SVG Version: 6.00 Build 0)  -->
<svg version="1.1" id="Layer_1" xmlns="http://www.w3.org/2000/svg" xmlns:xlink="http://www.w3.org/1999/xlink" x="0px" y="0px"
	 viewBox="0 0 25 25" style="enable-background:new 0 0 25 25;" xml:space="preserve">
<style type="text/css">
	.st0{fill:#181818;}
	.st1{fill:none;}
	.st2{fill:#ADADAD;}
	.st3{fill:#3B3B3B;}
	.st4{fill:#7E7E7E;}
	.st5{fill:#9B9B9B;}
	.st6{fill:#656565;}
</style>
<g id="explore">
	<circle class="st0" cx="12.5" cy="12.5" r="7.9"/>
	<path class="st0" d="M12.5,5.2c4,0,7.2,3.2,7.2,7.2s-3.2,7.2-7.2,7.2s-7.2-3.2-7.2-7.2C5.3,8.5,8.5,5.3,12.5,5.2 M12.5,4.6
		c-4.3,0-7.8,3.5-7.8,7.8s3.5,7.8,7.9,7.8s7.8-3.5,7.8-7.8S16.8,4.6,12.5,4.6C12.5,4.6,12.5,4.6,12.5,4.6z"/>
</g>
<rect y="0" class="st1" width="25" height="25"/>
<path id="path0_fill" class="st2" d="M11,17.1c0.9,0,1.5-0.7,1.5-1.5V14H11c-0.9,0-1.5,0.7-1.5,1.5C9.5,16.4,10.1,17.1,11,17.1
	L11,17.1z"/>
<path id="path1_fill" class="st3" d="M9.4,12.5c0-0.9,0.7-1.5,1.6-1.5c0,0,0,0,0,0h1.5v3H11C10.1,14,9.4,13.4,9.4,12.5
	C9.4,12.5,9.4,12.5,9.4,12.5z"/>
<path id="path1_fill-2" class="st4" d="M9.4,9.4c0-0.9,0.7-1.5,1.5-1.5c0,0,0,0,0,0h1.5V11H11C10.1,11,9.4,10.4,9.4,9.4
	C9.4,9.5,9.4,9.4,9.4,9.4z"/>
<path id="path2_fill" class="st5" d="M12.5,7.9H14c0.9,0,1.6,0.7,1.6,1.6S14.9,11,14,11h-1.5V7.9z"/>
<path id="path3_fill" class="st6" d="M15.6,12.5c0,0.9-0.6,1.6-1.5,1.6c-0.9,0-1.6-0.6-1.6-1.5c0-0.8,0.6-1.6,1.5-1.6
	C14.9,11,15.6,11.6,15.6,12.5C15.6,12.5,15.6,12.5,15.6,12.5z"/>
</svg>
