<svg width="56" height="46" viewBox="0 0 56 46" fill="none" xmlns="http://www.w3.org/2000/svg">
<path d="M55.1343 4.25408C54.7533 3.94929 54.2634 3.82955 53.7736 3.91664L46.7525 5.32084C41.1139 6.45292 35.0508 5.65829 29.9129 3.07846C29.2489 2.74102 28.5631 2.46888 27.8665 2.18587C20.8672 -0.666094 12.8991 -0.753177 5.82366 2.07701L1.02322 4.00372C0.402758 4.25408 0 4.85277 0 5.51678V17.4689L5.82366 18.405L27.8665 20.0269L50.0181 21.6489L55.7329 16.5872V5.51678C55.7329 5.02694 55.5152 4.56976 55.1343 4.25408Z" fill="#596C76"/>
<path d="M55.7329 16.5872V5.51683C55.7329 5.02699 55.5152 4.5698 55.1342 4.25413C54.7532 3.94934 54.2634 3.8296 53.7736 3.91668L46.7525 5.32089C41.1139 6.45297 35.0508 5.65834 29.9129 3.07851C29.2489 2.74107 28.5631 2.46893 27.8665 2.18591V20.0161L50.0181 21.638L55.7329 16.5872Z" fill="#465A61"/>
<path d="M46.7525 18.3833C41.1031 19.5154 35.0508 18.7208 29.902 16.1409C29.238 15.8035 28.5522 15.5314 27.8556 15.2592C20.8563 12.4073 12.8882 12.3202 5.81277 15.1504L0 17.4798V30.5422L5.82366 31.4784L27.8665 33.22L46.7525 34.7113L55.7329 29.6496V16.5872L46.7525 18.3833Z" fill="#FF8859"/>
<path d="M55.733 29.6496V16.5872L46.7525 18.3832C41.1031 19.5153 35.0508 18.7207 29.902 16.1409C29.238 15.8034 28.5523 15.5313 27.8556 15.2592V33.22L46.7417 34.7113L55.733 29.6496Z" fill="#FF415B"/>
<path d="M46.7525 31.4457C41.1031 32.5778 35.0508 31.7723 29.902 29.2033C29.238 28.8659 28.5522 28.5937 27.8556 28.3216C20.8563 25.4696 12.8882 25.3826 5.81277 28.2128L0 30.5422V41.4493C0 41.9936 0.272134 42.4943 0.718433 42.7991C1.16473 43.1039 1.74165 43.1583 2.24238 42.9624L7.04282 41.0466C13.7373 38.3688 21.357 38.6191 27.8774 41.6779C32.2642 43.7461 36.2808 45.0197 41.582 45.0197C46.0015 45.0197 48.4942 44.1271 54.4267 43.0495C55.1887 42.8971 55.7438 42.2222 55.7438 41.4493V29.6496L46.7525 31.4457Z" fill="#FFE375"/>
<path d="M41.5711 45.0089C45.9906 45.0089 48.4833 44.1163 54.4158 43.0386C55.1778 42.8862 55.733 42.2113 55.733 41.4385V29.6497L46.7525 31.4457C41.1031 32.5778 35.0508 31.7723 29.902 29.2034C29.238 28.8659 28.5523 28.5938 27.8556 28.3217V41.678C32.2533 43.7353 36.27 45.0089 41.5711 45.0089Z" fill="#FFB725"/>
</svg>
