<?xml version="1.0" encoding="utf-8"?>
<!-- Generator: Adobe Illustrator 24.1.0, SVG Export Plug-In . SVG Version: 6.00 Build 0)  -->
<svg version="1.1" id="Capa_1" xmlns="http://www.w3.org/2000/svg" xmlns:xlink="http://www.w3.org/1999/xlink" x="0px" y="0px"
	 viewBox="0 0 512 512" style="enable-background:new 0 0 512 512;" xml:space="preserve">
<style type="text/css">
	.st0{fill:#3B3B3B;}
	.st1{fill:#181818;}
	.st2{fill:#5C5C5C;}
	.st3{fill:#434343;}
	.st4{fill:#9D9D9D;}
	.st5{fill:#B5B5B5;}
</style>
<path class="st0" d="M512,512H0V0h512V512z"/>
<path class="st1" d="M512,512H256V0h256V512z"/>
<path class="st2" d="M482,482H30V30h452V482z"/>
<path class="st3" d="M482,482H256V30h226V482z"/>
<path class="st4" d="M207.5,181.6h29.3L301.6,352h-34.1l-15.8-42.5h-59.5L176.5,352h-34.1L207.5,181.6z M245.7,286.2l-23.5-67
	l-24.5,67H245.7z"/>
<g>
	<path class="st5" d="M317.2,208.7v-31.9h32.2v31.9H317.2z M317.2,352V226.2h32.2V352H317.2z"/>
	<polygon class="st5" points="256,232.1 256,321.2 267.5,352 301.6,352 	"/>
</g>
</svg>
