<?xml version="1.0" encoding="utf-8"?>
<!-- Generator: Adobe Illustrator 24.1.0, SVG Export Plug-In . SVG Version: 6.00 Build 0)  -->
<svg version="1.1" id="Layer_1" xmlns="http://www.w3.org/2000/svg" xmlns:xlink="http://www.w3.org/1999/xlink" x="0px" y="0px"
	 viewBox="0 0 32 32" style="enable-background:new 0 0 32 32;" xml:space="preserve">
<path d="M5,5v22h22V5H5z M7,7h18v18H7V7z M12.9,10c-0.6,0-1.1,0.4-1.1,1.1c0,0.6,0.5,1.2,1.2,1.2c0.2,0,1.1-0.2,1.1-1.2
	C14,10.4,13.5,10,12.9,10z M19.6,13.2c-0.8,0.1-1.8,0.7-2.4,1.9l0.4-1.7h-2.9l-0.4,1.5h1.4l-0.8,3.4c-0.7,1.6-2.4,1.9-2.4,1
	c0-0.5,0-0.2,1.4-5.9h-3.3L10,14.9h1.4c-0.9,3.8-1,3.8-1,4.4c0,2.1,2.7,2.4,4,0.2l-0.3,1.4H16l1.1-4.4c0.6-2.5,3.2-2,2.6,0
	c-0.4,1.4-1.7,4.5,1.1,4.5c1,0,1.8-0.7,2.3-2.2l-0.8-0.3c-0.6,1.7-1.4,1.4-1.4,0.7c0-0.3,0-0.3,0.6-2.5C22.2,14.4,21,13.1,19.6,13.2
	z"/>
</svg>
