<svg width="32" height="32" viewBox="0 0 32 32" fill="none" xmlns="http://www.w3.org/2000/svg">
<path d="M16 0C7.1625 0 0 7.1625 0 16C0 24.8375 7.1625 32 16 32C24.8375 32 32 24.8375 32 16C32 7.1625 24.8375 0 16 0ZM11.35 24.1875H7.45625V12.4625H11.35V24.1875ZM9.4 10.8625H9.375C8.06875 10.8625 7.21875 9.9625 7.21875 8.8375C7.21875 7.6875 8.0875 6.8125 9.425 6.8125C10.7625 6.8125 11.5813 7.6875 11.6062 8.8375C11.6062 9.9625 10.7625 10.8625 9.4 10.8625ZM25.4 24.1875H21.5063V17.9188C21.5063 16.3438 20.9438 15.2688 19.5312 15.2688C18.4562 15.2688 17.8125 15.9938 17.5312 16.6938C17.4312 16.9438 17.4 17.2937 17.4 17.6437V24.1875H13.5063C13.5063 24.1875 13.5563 13.5625 13.5063 12.4625H17.4V14.125C17.9187 13.325 18.8438 12.1875 20.9125 12.1875C23.475 12.1875 25.4 13.8625 25.4 17.4625V24.1875Z" fill="black"/>
</svg>
