<?xml version="1.0" encoding="utf-8"?>
<!-- Generator: Adobe Illustrator 24.1.0, SVG Export Plug-In . SVG Version: 6.00 Build 0)  -->
<svg version="1.1" id="Layer_1" xmlns="http://www.w3.org/2000/svg" xmlns:xlink="http://www.w3.org/1999/xlink" x="0px" y="0px"
	 viewBox="0 0 300 300" style="enable-background:new 0 0 300 300;" xml:space="preserve">
<style type="text/css">
	.st0{fill:none;stroke:#000000;stroke-width:8;stroke-miterlimit:10;}
	.st1{font-family:'BigJohn';}
	.st2{font-size:90px;}
	.st3{fill:none;stroke:#000000;stroke-miterlimit:10;}
	.st4{fill:#42225A;}
	.st5{fill:none;}
	.st6{opacity:0.85;}
	.st7{opacity:0.3;fill:#FFFFFF;}
	.st8{opacity:0.3;fill:#42225A;}
</style>
<text transform="matrix(1 0 0 1 321.272 171.8233)" class="st1 st2">Gd’EX</text>
<line class="st0" x1="403.3" y1="186.5" x2="621.3" y2="186.5"/>
<line class="st0" x1="321.3" y1="89.7" x2="539.2" y2="89.7"/>
<text transform="matrix(1 0 0 1 0 171.8233)" class="st1 st2">Gd’EX</text>
<line class="st0" x1="82.1" y1="186.5" x2="300" y2="186.5"/>
<line class="st0" x1="0" y1="89.7" x2="217.9" y2="89.7"/>
<path class="st3" d="M504.7,121.5c-0.1,22.7-41.8-48.8-91.7,91.7c-17,47.7-91.7-41.1-91.7-91.7s41.1-91.7,91.7-91.7
	C463.6,29.7,505.2,52.1,504.7,121.5z"/>
<path class="st4" d="M817.9,131.7c-0.1,22.7-41.8-48.8-91.7,91.7c-17,47.7-91.7-41.1-91.7-91.7S675.5,40,726.1,40
	C776.7,40,818.3,62.4,817.9,131.7z"/>
<text transform="matrix(1 0 0 1 634.3898 171.8233)" class="st1 st2">Gd’EX</text>
<line class="st0" x1="716.5" y1="186.5" x2="934.4" y2="186.5"/>
<line class="st0" x1="634.4" y1="89.7" x2="852.3" y2="89.7"/>
<g>
	<g>
		<g>
			<g>
				
					<rect x="453.3" y="513.8" transform="matrix(0.9477 -0.3193 0.3193 0.9477 -199.2665 215.048)" class="st5" width="206" height="403"/>
				<g class="st6">
					<g>
						<path class="st4" d="M401.6,572.2c1.3-2.9,0.2-9.7,5.3-11c3.4-9.1,12.4-9.6,19.1-14.1c1.7,3.4,4-0.6,6.8-0.5
							c1.7-0.8,2.5-3.6,4.7-3.8c1.9,1.9-3.3,3.6,0.2,5.1c6.2,2.9,9.3-5.6,14.7-5.7c-1.1,4.1-8,4.9-6.4,9.8c3.7,1.5,8.6,3.3,11.8,2.5
							c-1.5-1.5-3.3-3.9-2.5-5.9c1.1-1.1,2.8,0.1,3.1,1.2c1.9,2.6,1.5,5.2,2.3,7.4c3.4,2.8,7.9,2.8,12.1,2.1c-0.3-1.6,1.7-2.3,3-2.2
							c5.1-1,7.4,5.7,12.8,4.1c3.8-0.5,5.4-3.8,9.4-3.9c1,0.9,1.9,2.1,1.7,3.4c-2.3,4.3-8,1.4-9,7.2c0.3,1.6,2.2,1.5,3.6,1.8
							c2.4-3.1,6.5-2.2,9.6-4c-1,1.3,0.8,1.5,1.2,2.1c-5.5,4.3-15.4,3-18.3,9.9c0.8,1,2.8,1.6,1.8,3.1c-1,0.6-2.8,1.4-3.4,3.1
							c1.6,7.7,11.2,8.2,15,14.3c-5.5-3.9-14.2-3.9-19.4-5.1c4.9,1.3,7.5,7.4,9.3,9.8c-6.8-2.4-9.6-5-14.9-8.9
							c-6.2,2.3-11.6,6.9-16,11.6c-0.6,3.4,4.9,7.3,1,10.3c-3.4-1.3-0.7-6.5-3.6-9.2c-2.7-0.6-4-4.4-7.1-4.1c0,0.7,0.4,2.6-1,2.1
							c-2.2-0.7-3.5-5.3-5.8-2.5c-0.7,1-1.4,2.5-1.1,3.4c-0.9-0.4-2.2-1.5-3.4-2.1c-3.6,4.2,3.7,4.5,3.2,8.1
							c-9.2-7.3-21.8-8-30.5-15.3C406.2,589.3,399.6,581.5,401.6,572.2z"/>
						<polygon class="st7" points="411.8,566.3 411,566 411.2,565.7 						"/>
						<path class="st4" d="M463.5,680.5c3-2,6.2-2.1,8.9,0.5c2.2,2.7,2.5,6.6,1.4,9.2c-1.6,2.8-4.4,0.2-6.5,1.2
							C462.3,690.3,461.3,683.7,463.5,680.5z"/>
						<polygon class="st7" points="423.6,565.8 422.1,565.8 422.9,566 						"/>
						<polygon class="st7" points="421.3,558.9 420.3,559.7 420.6,559.1 						"/>
						<polygon class="st7" points="427.2,559.6 426.8,559 427.3,558.5 						"/>
						<polygon class="st7" points="429.4,557.9 428.5,558.4 428.7,558.1 						"/>
						<polygon class="st7" points="430.9,552.9 429.4,553.6 430,553.2 						"/>
						<polygon class="st7" points="433.5,561.4 432.9,562.4 433.1,562.3 						"/>
						<path class="st4" d="M466.2,656.2c-2.4-4.2-2.7-9.5-3.5-14.2c1.3-1.4,2.4-0.3,3.2,0.7c-0.2,5.3,3.8,10.6,2.5,15.5
							C467.5,658.5,464.5,657.8,466.2,656.2z"/>
						<polygon class="st7" points="430.8,550.9 430.2,551.4 430.3,551.1 						"/>
						<path class="st7" d="M465.5,649.5c-0.6-1,0.5-0.2,0.7-0.7c-1.9,1.6,0.8,1,0.7,2.8l-2.6-1.1C465,650.4,465.1,649.9,465.5,649.5
							z"/>
						<path class="st7" d="M465.8,652.6l1.4-0.2c0.2,1.9-1.7-0.7-1.4,1C466,653.3,465.8,652.9,465.8,652.6z"/>
						<path class="st7" d="M464.2,645.7c0.7,0,1.6-0.5,2,0.1C465.4,645.8,464.4,646.4,464.2,645.7z"/>
						<path class="st7" d="M452.9,599.1c0.8,0.2,0.7,0.5-0.1,0.5C452.8,599.4,453,599.3,452.9,599.1z"/>
						<path class="st7" d="M439.8,553.4c0.2,0.7,0.2,1.4-0.3,2.1C438,554.7,439,553.9,439.8,553.4z"/>
						
							<rect x="456.5" y="605.7" transform="matrix(0.9477 -0.3193 0.3193 0.9477 -169.5275 177.6593)" class="st7" width="1.2" height="0.5"/>
						<path class="st7" d="M460.9,598.4l1.8,0.1l-2.1,1.2C460.5,599.5,461.4,599,460.9,598.4z"/>
						<path class="st4" d="M579,881.7c2.2-3.7,6.8-3.3,9.8-4.8c0.2,4.4,4.8,2.6,6.5,6c6.3,1.1,12.3,3.3,19,2.5
							c-0.2,2.3-5.5,0.6-7.4,4c-2.6,4.1,1.4,7.2,3.2,10.1c3.1,2.4,7.7,3.6,7.8,7.6c-8.1-8.5-19.6,0.1-28-6.5
							c-4.7-3.6-13-5.5-12.1-13.1C575.9,885.2,578.2,883.8,579,881.7z"/>
						<path class="st7" d="M480.5,590.8c0.7-0.7-0.5,0.7-0.7,0.7L480.5,590.8z"/>
						<path class="st4" d="M487.8,612.7c1,0.9,2.9-1,4.2,0.6C490.9,611.4,488.6,614.4,487.8,612.7z"/>
						<path class="st7" d="M482.8,595.5c1.3,0.1,0.8,1.5,1.6,1.7C483.8,597.9,482.3,596.4,482.8,595.5z"/>
						<path class="st4" d="M489.1,614.2l1.2,0.6L489.1,614.2z"/>
						<path class="st4" d="M571.5,843.5c0.8-9.5,4.6-17.2,8.9-25.3c1.8,0.1,3-2.8,4.2-0.2c1.4,1.8,0,3.7,0.1,5.4
							c-3.1,7.8-7.8,15.3-9.5,23.3c-0.8,2-0.8,5.7-4.5,5C566.4,850.2,570.1,845.2,571.5,843.5z"/>
						<path class="st4" d="M491,615.6l1.2-0.2L491,615.6z"/>
						<path class="st4" d="M494.4,614.7l-1.6-0.2C493.3,614.8,493.9,614.4,494.4,614.7z"/>
						<path class="st4" d="M494.9,615.3l0.7,0.7c-0.5,0.7-1.3,0.7-1.9,0.4C493,615.6,494.3,615.7,494.9,615.3z"/>
						<path class="st4" d="M558.5,733.4c3.2-3.1,8.1-0.2,11.2-2.8c3.4-0.2,6.6,2.7,9.3,4.8c-1.4,3.9,6.8,4.7,2.4,8.6
							c1.6,1.2,3.1,4.9,5.5,3.1c1-4.3,6.2-7.5,4.5-12.4c0.7-1,1.9,0.4,2.8,1c3,0,2.1-4.2,3.3-5.6l3.2,1.4l1.6-2.8
							c1.4,0.5,3.2,2.9,4.8,1.1c2.9-1.7-0.6-4.8,2.7-5.4c1.1,1.1-0.4,3.4,0.8,4.7c3.4,1.3,6.9-0.1,8.3-2.6c1.1,1.1,0.9,2.7,1.9,4.1
							c2.4,0.4,5.1,2,7.1-0.4c2.3,1-0.4,2.6,0.5,3.8c2.8-1.9,5,3.8,7.5,0.2c0.3,2.4-2.9,1.7-2.9,4c-0.5,11.1,12.2,10.3,13.1,19.7
							c-4.7,0.8-6.8,7.2-12,6.5c-3.3,3.4,0.2,6.4,1,8.9c-1.6,1.8-5.1,2-6.3,3.4c3.7,2.2,0.4,7.1,4.3,9.2
							c-5.8-6.8-17.8-7.9-23.9-15.8c-2.1-0.3-5.1-3.3-7.1-0.3c-2.1,3.2-3.1,6.3-2.7,9.6c-0.8,3.5-4.3,1.2-4.9,4.6
							c-2.8-2.3,2.1-6.2-0.8-8.9c1.3-2.7,4.2-5.4,3.7-8.9c-0.5-5.3-5.2-7.9-6.7-12.4c-3.9-2.7-7.2-5.8-11.6-7
							c-3.5,5.1,6.6,6.2,5.4,12.3c-0.4,1.9-2.2,3-3.8,2c-3.1-1.7-5.9-7.9-10.1-4.1c-1.6,1-2.9,4.7-5.4,2.5c-6.6-2-9.8-7.6-10.9-14.7
							C554.5,740.7,556.8,737.2,558.5,733.4z"/>
						<path class="st4" d="M588,805.4c-0.6,3.4-1.8-0.1-2.8,0.5C585.9,804.9,587.4,803.6,588,805.4z"/>
						<path class="st4" d="M574.7,701.1c1.3-0.5,3.2-0.8,4.9-0.2c1.9,1.1,3.7,2,4.1,4.1c-1.3,1.4-3.5,2.9-5.6,2.4
							c-1.7-0.7-2.8-0.8-3.7-2.2C573.6,703.7,573.6,702.2,574.7,701.1z"/>
						<path class="st7" d="M576.2,704.1c-0.4-0.6,0.4-1.1,1-0.8l-0.2,0.1l0.8,1c-1.9-1.1-1.5,1.5-0.8,2
							C576,705.6,575.1,705.2,576.2,704.1z"/>
						<path class="st4" d="M535.3,574.3c3.5-6.4,11.8-4.7,17.7-7.2c2,5.8,9.4,3.5,13.2,7.5c-1.3,0.7-3.1-0.4-4.5-0.2l0.7-1.5
							c-1.2,0.9-1.6-0.4-2.8,0.5l0.2-0.3c-1.2,0.1-3.5-2.3-3.1,0.3c-1.9-0.4-2.6-2.6-3.5-4.5c-1,3.6-2.8-1-2.7,2.9
							c-1.7-0.7,1.4-1.7-0.8-2.2c-4-0.9-8.3,1.8-11.7,4.4c1.1,0.4,2.5-1.3,3.5,0.1c-3.6,0.5,0.9,4.9-2.9,5.4c1.9,1.9,3,1.5,5.3,2.4
							c1.8-2.1-1.8-3.1-0.2-4.9c2.6,1.9,3.1-2.5,5.8,0.3c-2.7-1.3-2.9,0.2-5.5,0.6c2.5,0.7,0.9,3.4,2.5,3.6l0.5-2.2
							c0,2.2,3.2,0.7,5.1,1.3l-0.1,0.3c0.7,0.7,1.1-0.4,1.6-0.5l-0.5,1.4c5.1,2.5,8.4-3.8,12.7-0.8c-1.9,1.9-5.7-0.6-6.4,3.1
							c-7.1,2.4-14.9,3.8-20.9-0.9C535,581.6,536.2,577,535.3,574.3z"/>
						
							<rect x="578.3" y="703.2" transform="matrix(0.9477 -0.3193 0.3193 0.9477 -194.3022 221.6494)" class="st7" width="1.2" height="0.5"/>
						<path class="st7" d="M538.8,578.1c-0.7-0.5-0.5,1.4-1.2,0.2L538.8,578.1z"/>
						<path class="st4" d="M541.3,575.3c1-0.8,0.5,0.6,1.7,0.7c-1.6-0.2-1.5,1.5-2.3,2C541.4,577,542.2,576.5,541.3,575.3z"/>
						<path class="st4" d="M542.1,577.7l0.8-0.5L542.1,577.7z"/>
						<path class="st7" d="M544.9,583c1.5,0.7,0.5-1.4,1,0.7C545.4,583.1,544.7,584.1,544.9,583z"/>
						<path class="st4" d="M542.5,574.6c0.2-0.1,0.7-0.2,1-0.1C543.2,574.9,542.6,575.4,542.5,574.6z"/>
						<path class="st4" d="M543.5,571.6c-0.9,1.8,1.6,0.4,1.3,1c-1.6,0.3-1.3,1.4-2.6,0.4C541.6,571.9,543.5,572.3,543.5,571.6z"/>
						
							<rect x="546.3" y="578" transform="matrix(0.9477 -0.3193 0.3193 0.9477 -155.9314 205.0137)" class="st4" width="2.1" height="0.2"/>
						<path class="st7" d="M549.6,580.9c-0.1,0.5-0.8-0.2-1.1-0.4C548.8,580.7,549.3,581.3,549.6,580.9z"/>
						<path class="st7" d="M550.2,582.5c0.7,0.5-0.3,0.6-0.5,0.7C549.8,582.9,549.9,582.3,550.2,582.5z"/>
						<polygon class="st4" points="547.1,571.8 545.8,571.8 546.7,570.7 						"/>
						<polygon class="st4" points="535.2,534.4 533.9,534.3 533.7,533.6 						"/>
						<path class="st4" d="M549.4,578c1.1,0.4,1,0.7,0.2,1.4C549.9,578.8,549.6,578.5,549.4,578z"/>
						<path class="st4" d="M580.7,659.9c5.2-2.2,10.5,0.9,13.9,4.5c-1.5,3.7-5.4,6-8.6,7.6c-2.2,0-4.8-1.8-6.1-3.4
							C578.8,665.2,577.1,661.8,580.7,659.9z"/>
						<path class="st4" d="M561.1,589c6.6-3.2,11.3,1.9,17,4c-0.1,1.3-1.5,3,0.3,3.9c-3.9,1.6-5.5,5.1-7,9.5c-2.2,1.5-5.3,2-7.8,0.4
							c-6-1.5,0.5-7.4-5.7-8.8C555.7,594.5,557.9,590.8,561.1,589z"/>
						<path class="st4" d="M553.9,576.5l1-0.8L553.9,576.5z"/>
						<path class="st4" d="M552.9,571.4l-0.1-1L552.9,571.4z"/>
						<path class="st7" d="M563.1,598.7c0.7-0.7-0.1-1-0.6-1c2.9-1,9.4,0.6,8.3-2.6l-1.8,0.6c0.8-1.3-0.5-3.6,1-4.5l0.8,2.2
							l-1.2-0.6c-0.9,1,1,1.6,0.8,2.5c2.2,0.5,3-2,4.4,0.5c-0.9,1-2.1,0.5-2.6,1.9c2.2-0.2,0.7,0.5,1.6,1.9l-1.2-0.6
							c0.2-0.1,0.1-0.3,0.4-0.4c-1.4-1.3-3.3,1.1-4.8-0.9c0.9,1.9-3,2.2-4.4,3.2c1.9-0.9,0.4-2.4-1.3-2.5
							C562.7,598.4,563,598.5,563.1,598.7z"/>
						<path class="st7" d="M566.5,603c0.6,0.3,0.5,1.3,1.3,1.6C568.1,606.2,566.5,603,566.5,603z"/>
						<polygon class="st4" points="559.4,581.1 558.3,580 559.3,580.1 						"/>
						<polygon class="st4" points="542.9,531.3 542,531.8 542.4,531.4 						"/>
						<path class="st8" d="M566.7,597c0.1,0.4,0.2,1.2,0.4,1.9l-0.2-0.4l-1.4,1C565.1,598.1,567.4,597.5,566.7,597z"/>
						<path class="st7" d="M566.7,601.3l2.1-1.2L566.7,601.3z"/>
						<path class="st7" d="M566,594.8c-0.6,1.2,0.1,0.4-1.3,0.7L566,594.8z"/>
						<path class="st7" d="M590.2,666.6c0.2,0.4,0.4,0.4,0.5,0.6l-1.3,0.5C589.7,667.3,589.7,666.8,590.2,666.6z"/>
						<path class="st7" d="M564.4,593.8l1.3,0.3L564.4,593.8z"/>
						<path class="st7" d="M568.5,602.1c0.2,0.7,0.5,0.6,0.7,0c0,0.7-1,0.6-1.2,0.9L568.5,602.1z"/>
						<polygon class="st7" points="565.7,591.9 565,592.6 564.9,592.2 						"/>
						<polygon class="st4" points="579.7,632.4 578.6,632.3 578.7,631.7 						"/>
						<polygon class="st7" points="566.8,593.5 566.3,593.7 566,592.5 						"/>
						<polygon class="st4" points="580.3,629.2 578.7,629.5 579.4,629.5 						"/>
						<path class="st4" d="M561.8,577.3l1.9,1.1C563.1,578.1,561.1,578.8,561.8,577.3z"/>
						<path class="st4" d="M557.9,523.5l0.8,1C557.7,524.5,558.1,524.2,557.9,523.5z"/>
						<path class="st4" d="M666,761c2.1-2.7,6.2-2.3,8.9-2.3c4.2,2.8,9.5,5.5,8.4,11.1c-0.4,1.9-1.3,3.7-2.7,5.4
							c-2.9,0.2-6.7,3.7-10.3,1.2C665.3,773.7,660.8,766.3,666,761z"/>
						<path class="st4" d="M628.3,642.6c2.8-2.7,6.3-0.6,8.6-0.2c2.5,1.6,5.2,4.4,4.6,7.7c0.4,1.9-0.9,3.1-2.3,4.2
							c-2.3,1.3-6.1,1.8-8.7,0C625.9,652.3,624.3,645.4,628.3,642.6z"/>
					</g>
				</g>
			</g>
		</g>
	</g>
</g>
<text transform="matrix(1 0 0 1 0 491.8099)" class="st1 st2">Gd’EX</text>
<line class="st0" x1="82.1" y1="506.5" x2="300" y2="506.5"/>
<line class="st0" x1="0" y1="409.7" x2="217.9" y2="409.7"/>
</svg>
