<svg width="32" height="32" viewBox="0 0 32 32" fill="none" xmlns="http://www.w3.org/2000/svg">
<path d="M21.6572 10.0714H10.0929L15.8786 15.05L21.6572 10.0714Z" fill="black"/>
<path d="M16 17.1429C15.8643 17.1429 15.7286 17.0929 15.6286 17.0072L8.57141 10.9572V21.7143H23.4286V10.9572L16.3714 17.0072C16.2714 17.0929 16.1357 17.1429 16 17.1429Z" fill="black"/>
<path d="M16 0C7.16429 0 0 7.16429 0 16C0 24.8357 7.16429 32 16 32C24.8357 32 32 24.8357 32 16C31.9929 7.16429 24.8357 0.00714286 16 0ZM25.3714 22.9214C25.3714 23.2714 25.0929 23.5571 24.7429 23.5571H7.17143C6.82143 23.5571 6.54286 23.2714 6.54286 22.9214V8.87143C6.54286 8.52143 6.82143 8.23571 7.17143 8.23571H24.7429C25.0929 8.23571 25.3714 8.52143 25.3714 8.87143V22.9214Z" fill="black"/>
</svg>
