<?xml version="1.0" encoding="utf-8"?>
<!-- Generator: Adobe Illustrator 24.1.0, SVG Export Plug-In . SVG Version: 6.00 Build 0)  -->
<svg version="1.1" id="Capa_1" xmlns="http://www.w3.org/2000/svg" xmlns:xlink="http://www.w3.org/1999/xlink" x="0px" y="0px"
	 viewBox="0 0 512 512" style="enable-background:new 0 0 512 512;" xml:space="preserve">
<style type="text/css">
	.st0{fill:#303030;}
	.st1{fill:#171717;}
	.st2{fill:#535353;}
	.st3{fill:#444444;}
	.st4{fill:#959595;}
	.st5{fill:#AAAAAA;}
	.st6{fill:#656565;}
</style>
<path class="st0" d="M512,512H0V0h512V512z"/>
<path class="st1" d="M512,512H256V0h256V512z"/>
<path class="st2" d="M482,482H30V30h452V482z"/>
<path class="st3" d="M482,482H256V30h226V482z"/>
<path class="st4" d="M140.9,352V181.6h72.2c33.1,0,54.2,30.4,54.2,56.6c0,30.9-23.5,56.6-53,56.6H174V352H140.9z M174,265.8h38.4
	c11.6,0,21.4-10.8,21.4-27.6c0-14.4-8.7-27.6-22.8-27.6h-37V265.8z"/>
<path class="st5" d="M334.8,354.4c-29,0-49.7-13.2-56.9-19.4l12-20.2c7.7,5.4,25.4,16.6,44.2,16.6c12.2,0,20.6-5.1,20.6-13.9
	c0-10.8-17.8-14.3-27.6-17c-8.2-2.2-44.9-7.4-44.9-35c0-26.6,23.2-41.5,49.4-41.5c27.6,0,42.3,11.2,49.2,17.3l-13,19.4
	c-6.4-4.8-20.6-13.9-36.5-13.9c-11.7,0-19.2,5-19.2,14.2c0,11.5,20.1,14.7,24.7,15.8c8.6,2.2,48.7,8.4,48.7,37.9
	C385.7,349.5,350.5,354.4,334.8,354.4z"/>
<path class="st6" d="M256,204.4v68.8c7.1-9.7,11.3-21.8,11.3-34.9C267.3,226.8,263.3,214.5,256,204.4z"/>
</svg>
