<?xml version="1.0" encoding="utf-8"?>
<!-- Generator: Adobe Illustrator 24.1.0, SVG Export Plug-In . SVG Version: 6.00 Build 0)  -->
<svg version="1.1" id="Capa_1" xmlns="http://www.w3.org/2000/svg" xmlns:xlink="http://www.w3.org/1999/xlink" x="0px" y="0px"
	 viewBox="0 0 512 512" style="enable-background:new 0 0 512 512;" xml:space="preserve">
<style type="text/css">
	.st0{fill:#161616;}
	.st1{fill:#535353;}
	.st2{fill:#434343;}
	.st3{fill:#E6E6E6;}
	.st4{fill:#A9A9A9;}
</style>
<path class="st0" d="M512,512H0V0h512V512z"/>
<path class="st0" d="M512,512H256V0h256V512z"/>
<path class="st1" d="M482,482H30V30h452V482z"/>
<path class="st2" d="M482,482H256V30h226V482z"/>
<path class="st3" d="M156.9,352V181.6h72.2c33.1,0,54.2,30.4,54.2,56.6c0,30.9-23.5,56.6-53,56.6h-40.3V352H156.9z M190.1,265.8
	h38.4c11.6,0,21.4-10.8,21.4-27.6c0-14.4-8.7-27.6-22.8-27.6h-37V265.8z"/>
<g>
	<path class="st4" d="M378.2,254.1c-28.3,0-39.4,14.6-42.7,21.8V352h-32.2V226.2h29.5v26.9c2.2-4.3,16.3-31.4,45.4-28.3L378.2,254.1
		L378.2,254.1z"/>
	<path class="st4" d="M256,189.2v98.6c16.4-9.7,27.4-28.4,27.4-49.6C283.4,220.1,273.2,199.9,256,189.2z"/>
</g>
</svg>
