<?xml version="1.0" encoding="utf-8"?>
<!-- Generator: Adobe Illustrator 24.1.0, SVG Export Plug-In . SVG Version: 6.00 Build 0)  -->
<svg version="1.1" id="Social_Icons" xmlns="http://www.w3.org/2000/svg" xmlns:xlink="http://www.w3.org/1999/xlink" x="0px"
	 y="0px" viewBox="0 0 128 128" style="enable-background:new 0 0 128 128;" xml:space="preserve">
<style type="text/css">
	.st0{fill:none;}
	.st1{fill:url(#SVGID_1_);}
	.st2{fill:#343434;}
</style>
<rect y="0" class="st0" width="128" height="128"/>
<linearGradient id="SVGID_1_" gradientUnits="userSpaceOnUse" x1="60.2874" y1="88.4238" x2="67.4315" y2="74.3819">
	<stop  offset="0" style="stop-color:#C36AD5"/>
	<stop  offset="1" style="stop-color:#662CAA"/>
</linearGradient>
<path class="st1" d="M64.4,90.1c5.5,0,9.9-4.4,9.9-9.8s-4.4-9.8-9.9-9.8s-9.9,4.4-9.9,9.8C54.6,85.7,59,90.1,64.4,90.1z"/>
<path class="st2" d="M16,107l0-59.3C16,21.4,37.5,0,64,0s48,21.4,48,47.7S91,95.4,64.4,95.4c-8.4,0-15.3-6.8-15.3-15.2
	S56,65.1,64.4,65.1c9.7,0,17-7.8,17-17.4S73.7,30.3,64,30.3s-17.5,7.8-17.5,17.4l0,65.1c0,14.7-16.1,18.7-24.9,12
	c2.6-1.8,4.3-4.7,4.3-8.1C25.9,111.4,21.5,107,16,107z"/>
</svg>
