<?xml version="1.0" encoding="utf-8"?>
<!-- Generator: Adobe Illustrator 24.1.0, SVG Export Plug-In . SVG Version: 6.00 Build 0)  -->
<svg version="1.1" id="Layer_1" xmlns="http://www.w3.org/2000/svg" xmlns:xlink="http://www.w3.org/1999/xlink" x="0px" y="0px"
	 viewBox="0 0 512 512" style="enable-background:new 0 0 512 512;" xml:space="preserve">
<style type="text/css">
	.st0{fill:#B3B3B3;}
	.st1{fill:#414141;}
	.st2{fill:#383838;}
	.st3{fill:#939393;}
	.st4{fill:#969696;}
	.st5{fill:#EDEDED;}
</style>
<polygon class="st0" points="388.2,206 123.7,206.1 258.1,449.3 "/>
<polygon class="st1" points="123.7,206.1 44.8,206.1 258.2,449.3 "/>
<polygon class="st2" points="388.2,205.5 258.1,449.3 467.2,206.1 388.2,205.6 "/>
<polygon class="st0" points="384.1,87.2 375.4,75.4 376.2,91.5 387.9,206.2 466.9,206.2 "/>
<polygon class="st0" points="45,206.5 124.1,206.5 130.1,92.2 131,76.1 122.2,87.8 "/>
<polygon class="st3" points="128.4,122.7 123.9,206.1 256.2,62.7 130.9,76.1 "/>
<polygon class="st4" points="375.8,75.4 256.2,62.7 388.2,206 "/>
<polygon class="st5" points="123.9,206.1 388.2,206.1 312.4,123.7 256.1,62.7 "/>
<g id="Layer_1_1_">
</g>
</svg>
